<svg width="64" height="64" viewBox="0 0 64 64" fill="none" xmlns="http://www.w3.org/2000/svg">
<path fill-rule="evenodd" clip-rule="evenodd" d="M64 42.5375V42.5385V42.5405V42.5495V42.5845V42.7205V43.2135V44.7875V47.8895C64 50.8475 63.917 56.0545 59.107 60.0575C57.159 61.6795 54.641 62.6525 52.299 63.2265C49.969 63.7985 47.852 63.9655 46.725 64.0005H16.77C11.233 63.8405 7.376 62.0225 4.834 59.6855C0.888 55.1605 0.162 50.7065 0 45.7235V16.8175C0.138 13.9115 0.644 11.5595 1.567 9.54653C2.49 7.53553 3.841 5.83653 5.704 4.25253H5.705C9.718 0.835535 13.766 0.0465348 21.642 0.0465348C22.564 0.0465348 23.543 0.0365348 24.576 0.0255348C26.814 0.00153478 29.299 -0.0254652 31.989 0.0465348H32.002H38.923H43.17C45.863 0.117535 50.135 0.262535 52.688 0.996535C58.327 2.61653 61.151 6.66553 62.575 10.3535C63.287 12.1995 63.645 13.9455 63.822 15.2315C63.912 15.8735 63.956 16.3995 63.979 16.7625C63.99 16.9445 63.995 17.0845 63.998 17.1795C63.999 17.2255 64 17.2615 64 17.2845V17.3095V17.3155V17.3165V20.8655V42.5375Z" fill="#FFC41C"/>
<path fill-rule="evenodd" clip-rule="evenodd" d="M49.1047 44.3301L23.1867 51.1281C19.6837 52.0471 16.0987 49.9521 15.1797 46.4491L11.1137 30.9451C10.1947 27.4421 12.2897 23.8571 15.7927 22.9381L41.7107 16.1401C45.2137 15.2211 48.7987 17.3161 49.7177 20.8191L53.7837 36.3231C54.7027 39.8271 52.6077 43.4111 49.1047 44.3301Z" fill="#007A0E"/>
<path fill-rule="evenodd" clip-rule="evenodd" d="M48.2478 41.0625L22.3298 47.8605C18.8268 48.7795 15.2418 46.6845 14.3228 43.1815L10.2568 27.6775C9.33776 24.1745 11.4328 20.5895 14.9358 19.6705L40.8538 12.8725C44.3568 11.9535 47.9418 14.0485 48.8608 17.5515L52.9268 33.0555C53.8458 36.5595 51.7508 40.1435 48.2478 41.0625Z" fill="#00AA13"/>
<path fill-rule="evenodd" clip-rule="evenodd" d="M45.6965 35.3561L22.8245 41.3561C21.5605 41.6871 20.4355 40.4791 20.8565 39.2421L23.4405 31.6351C23.7845 30.6221 24.9915 30.2051 25.8875 30.7891L30.6485 33.8891C31.5915 34.5031 32.8585 34.0061 33.1335 32.9151L35.6125 23.0561C35.9445 21.7341 37.6525 21.3721 38.4925 22.4451L46.5715 32.7591C47.2985 33.6881 46.8365 35.0571 45.6965 35.3561Z" fill="white"/>
<path fill-rule="evenodd" clip-rule="evenodd" d="M21.9854 25.979C21.9854 27.498 20.7544 28.729 19.2354 28.729C17.7164 28.729 16.4854 27.498 16.4854 25.979C16.4854 24.46 17.7164 23.229 19.2354 23.229C20.7544 23.229 21.9854 24.46 21.9854 25.979Z" fill="white"/>
</svg>
