<svg width="360" height="20" viewBox="0 0 360 20" fill="none" xmlns="http://www.w3.org/2000/svg">
<path fill-rule="evenodd" clip-rule="evenodd" d="M256.955 5.51593C259.466 3.62256 262.591 2.5 265.978 2.5C269.365 2.5 272.489 3.62256 275 5.51593L265.978 16.5L256.955 5.51593Z" fill="#1C1D1D"/>
<path fill-rule="evenodd" clip-rule="evenodd" d="M277 16.5H291V2.5L277 16.5Z" fill="#1C1D1D"/>
<path fill-rule="evenodd" clip-rule="evenodd" d="M304 3.375V2.5L301 2.5V3.375H298V16.5H307V3.375H304Z" fill="#1C1D1D"/>
<g opacity="0.9">
<path d="M318.88 14.21C321.176 14.21 322.772 12.348 322.772 9.296C322.772 6.244 321.176 4.382 318.88 4.382C316.584 4.382 314.988 6.244 314.988 9.296C314.988 12.348 316.584 14.21 318.88 14.21ZM318.88 12.642C317.522 12.642 316.668 11.508 316.668 9.296C316.668 7.084 317.522 5.95 318.88 5.95C320.238 5.95 321.092 7.084 321.092 9.296C321.092 11.508 320.238 12.642 318.88 12.642ZM327.155 14.196C329.325 14.196 330.809 13.006 330.809 11.312C330.809 10.22 330.165 9.296 329.143 8.848V8.82C329.955 8.372 330.347 7.7 330.347 6.93C330.347 5.46 329.017 4.382 327.155 4.382C325.279 4.382 323.963 5.46 323.963 6.93C323.963 7.714 324.355 8.372 325.167 8.82V8.848C324.159 9.296 323.473 10.192 323.473 11.312C323.473 13.006 324.971 14.196 327.155 14.196ZM327.155 8.274C326.217 8.274 325.545 7.77 325.545 7.014C325.545 6.258 326.203 5.712 327.155 5.712C328.107 5.712 328.751 6.272 328.751 7.014C328.751 7.756 328.107 8.274 327.155 8.274ZM327.155 12.684C325.923 12.684 325.167 12.11 325.167 11.158C325.167 10.234 325.937 9.604 327.155 9.604C328.359 9.604 329.129 10.234 329.129 11.158C329.129 12.11 328.359 12.684 327.155 12.684ZM334.26 9.408V7.434H332.23V9.408H334.26ZM334.26 14V12.026H332.23V14H334.26ZM339.812 14.21C342.108 14.21 343.704 12.348 343.704 9.296C343.704 6.244 342.108 4.382 339.812 4.382C337.516 4.382 335.92 6.244 335.92 9.296C335.92 12.348 337.516 14.21 339.812 14.21ZM339.812 12.642C338.454 12.642 337.6 11.508 337.6 9.296C337.6 7.084 338.454 5.95 339.812 5.95C341.17 5.95 342.024 7.084 342.024 9.296C342.024 11.508 341.17 12.642 339.812 12.642ZM348.086 14.196C350.256 14.196 351.74 13.006 351.74 11.312C351.74 10.22 351.096 9.296 350.074 8.848V8.82C350.886 8.372 351.278 7.7 351.278 6.93C351.278 5.46 349.948 4.382 348.086 4.382C346.21 4.382 344.894 5.46 344.894 6.93C344.894 7.714 345.286 8.372 346.098 8.82V8.848C345.09 9.296 344.404 10.192 344.404 11.312C344.404 13.006 345.902 14.196 348.086 14.196ZM348.086 8.274C347.148 8.274 346.476 7.77 346.476 7.014C346.476 6.258 347.134 5.712 348.086 5.712C349.038 5.712 349.682 6.272 349.682 7.014C349.682 7.756 349.038 8.274 348.086 8.274ZM348.086 12.684C346.854 12.684 346.098 12.11 346.098 11.158C346.098 10.234 346.868 9.604 348.086 9.604C349.29 9.604 350.06 10.234 350.06 11.158C350.06 12.11 349.29 12.684 348.086 12.684Z" fill="#1C1D1D"/>
</g>
</svg>
